<?xml version="1.0" standalone="no"?>
<!DOCTYPE svg PUBLIC "-//W3C//DTD SVG 20010904//EN"
 "http://www.w3.org/TR/2001/REC-SVG-20010904/DTD/svg10.dtd">
<svg version="1.0" xmlns="http://www.w3.org/2000/svg"
 width="220.000000pt" height="220.000000pt" viewBox="0 0 220.000000 220.000000"
 preserveAspectRatio="xMidYMid meet">
<metadata>
Created by potrace 1.11, written by Peter Selinger 2001-2013
</metadata>
<g transform="translate(0.000000,220.000000) scale(0.100000,-0.100000)"
fill="#000000" stroke="none">
<path d="M813 1945 c-18 -8 -54 -38 -80 -67 -100 -110 -129 -134 -189 -157
-99 -36 -159 -76 -178 -115 -9 -20 -21 -80 -25 -133 -11 -114 -13 -122 -81
-239 -48 -83 -51 -93 -48 -146 4 -47 13 -70 56 -140 54 -89 71 -142 72 -224 0
-28 7 -74 15 -102 19 -63 48 -87 162 -135 98 -42 112 -52 190 -143 94 -108
134 -121 278 -84 97 25 140 25 235 0 85 -22 126 -25 166 -9 16 5 71 54 124
107 86 89 102 100 177 130 141 56 160 83 174 236 7 80 15 112 38 156 108 208
103 196 96 239 -4 22 -28 75 -54 118 -63 105 -69 122 -81 241 -15 154 -27 170
-184 234 -62 26 -90 45 -130 87 -163 172 -170 176 -309 143 -112 -27 -170 -28
-267 -2 -89 23 -114 24 -157 5z m442 -419 c56 -15 138 -54 175 -84 l24 -20
-27 -38 c-15 -22 -37 -52 -51 -69 l-24 -29 -38 25 c-153 100 -355 84 -342 -27
4 -39 43 -58 184 -95 145 -37 189 -56 243 -105 52 -46 68 -76 77 -141 14 -108
-46 -217 -148 -269 -153 -78 -424 -43 -551 71 l-28 25 43 62 c24 34 46 66 49
71 4 6 33 -9 65 -32 32 -23 80 -48 108 -56 65 -20 178 -19 216 0 40 21 65 70
51 101 -16 37 -49 52 -187 88 -148 38 -218 70 -261 120 -42 46 -56 95 -51 172
3 50 10 72 33 105 70 98 157 138 300 139 50 0 113 -6 140 -14z"/>
</g>
</svg>
